<svg xmlns="http://www.w3.org/2000/svg" width="400" height="84.501" viewBox="0 0 400 84.501">
  <g id="Razorpay_-_White" data-name="Razorpay - White" transform="translate(-0.8 -0.48)">
    <path id="Path_103217" data-name="Path 103217" d="M110.2,22.693,106.88,34.931l19.032-12.308-12.447,46.44,12.641.011L144.494.48" transform="translate(-83.685)" fill="#3395ff"/>
    <path id="Path_103218" data-name="Path 103218" d="M6.036,110.24.8,129.763H26.71l10.6-39.716L6.036,110.24m90-17.189a8.271,8.271,0,0,1-3.673,5.187,14.787,14.787,0,0,1-7.653,1.655H74.26l3.669-13.68h10.45c3.285,0,5.542.549,6.766,1.668s1.52,2.829.891,5.193m10.819-.3q1.995-7.41-1.651-11.4-3.642-3.958-12.768-3.969H69.115L55.077,129.787h11.33l5.658-21.111H79.5a8.206,8.206,0,0,1,3.939.8,3.572,3.572,0,0,1,1.7,2.871l2.022,17.438H99.294l-1.968-16.256q-.6-5.447-4.982-6.4a21.514,21.514,0,0,0,9.352-5.362,19.549,19.549,0,0,0,5.16-8.972M134.4,111.04a16.958,16.958,0,0,1-4.376,8.107,9.884,9.884,0,0,1-7.076,2.808c-2.8,0-4.7-.908-5.7-2.744s-1.039-4.5-.106-7.98a17.184,17.184,0,0,1,4.469-8.17,10.054,10.054,0,0,1,7.19-2.945c2.744,0,4.623.95,5.573,2.835.971,1.894.992,4.6.042,8.128ZM139.362,92.5l-1.419,5.3a8.4,8.4,0,0,0-3.557-4.56,11.959,11.959,0,0,0-6.538-1.689,18.511,18.511,0,0,0-9.183,2.47,24.281,24.281,0,0,0-7.706,6.967,30.641,30.641,0,0,0-4.834,10.218,22.011,22.011,0,0,0-.612,10.112,11.022,11.022,0,0,0,4.011,6.734,12.672,12.672,0,0,0,7.938,2.364,17.849,17.849,0,0,0,13.427-6.1l-1.478,5.523h10.957l10-37.318H139.394Zm50.382,0H157.881l-2.227,8.318h18.54L149.684,122l-2.094,7.811H180.48l2.227-8.318H162.842L187.728,100m30.062,10.978c-.986,3.673-2.449,6.435-4.381,8.233a9.875,9.875,0,0,1-7.017,2.723q-8.613,0-5.67-10.957a16.961,16.961,0,0,1,4.4-8.2,10.044,10.044,0,0,1,7.14-2.766q4.117,0,5.552,2.755t-.027,8.206M224.2,93.908a18.017,18.017,0,0,0-9.669-2.356A26.032,26.032,0,0,0,203.494,93.9a23.875,23.875,0,0,0-8.656,6.768,27.349,27.349,0,0,0-5.155,10.3,19.834,19.834,0,0,0-.359,10.287,11.115,11.115,0,0,0,5.024,6.756,18.371,18.371,0,0,0,9.8,2.358,25.5,25.5,0,0,0,10.936-2.36,24.115,24.115,0,0,0,8.613-6.777,27.435,27.435,0,0,0,5.151-10.3,19.693,19.693,0,0,0,.38-10.3,11.183,11.183,0,0,0-4.982-6.766m39.077,8.613,2.808-10.154a8.256,8.256,0,0,0-3.758-.739,14.974,14.974,0,0,0-7.241,1.879A15.8,15.8,0,0,0,250,97.922l1.457-5.468-3.181.013h-7.811l-10.07,37.3H241.5l5.225-19.5a12.336,12.336,0,0,1,4.1-6.65,11.317,11.317,0,0,1,7.368-2.386,10.928,10.928,0,0,1,5.109,1.246m30.928,8.677a16.625,16.625,0,0,1-4.349,7.98,9.972,9.972,0,0,1-7.072,2.766c-2.744,0-4.623-.929-5.616-2.787-1.013-1.868-1.034-4.56-.084-8.1a16.818,16.818,0,0,1,4.412-8.128,10,10,0,0,1,7.114-2.839c2.7,0,4.518.971,5.489,2.934s.992,4.687.059,8.17m7.769-17.184a12.217,12.217,0,0,0-7.874-2.47,17.424,17.424,0,0,0-7.98,1.913,16.647,16.647,0,0,0-6.143,5.223l.038-.253,1.864-5.932H271.009l-2.766,10.323-.084.359-11.4,42.526h11.126l5.742-21.407a7.682,7.682,0,0,0,3.5,4.48,12.442,12.442,0,0,0,6.566,1.611A19.338,19.338,0,0,0,292.933,128a22.861,22.861,0,0,0,7.621-6.734,29.751,29.751,0,0,0,4.771-10.112,22.514,22.514,0,0,0,.654-10.228,11.4,11.4,0,0,0-3.99-6.946M338.86,111a16.928,16.928,0,0,1-4.37,8.086,9.9,9.9,0,0,1-7.072,2.8c-2.808,0-4.708-.908-5.7-2.744-1.013-1.837-1.034-4.5-.106-7.98a17.137,17.137,0,0,1,4.459-8.17,10.056,10.056,0,0,1,7.193-2.943c2.744,0,4.6.95,5.573,2.829s.977,4.594.032,8.128Zm4.961-18.546-1.421,5.3a8.322,8.322,0,0,0-3.547-4.56,11.944,11.944,0,0,0-6.544-1.689,18.6,18.6,0,0,0-9.2,2.47,24.307,24.307,0,0,0-7.706,6.946,30.563,30.563,0,0,0-4.834,10.218,21.91,21.91,0,0,0-.612,10.125A10.98,10.98,0,0,0,313.964,128a12.774,12.774,0,0,0,7.938,2.352,17.555,17.555,0,0,0,7.431-1.626,17.374,17.374,0,0,0,5.981-4.482l-1.478,5.527h10.957l10-37.3H343.838Zm56.972.013.006-.011h-6.734c-.215,0-.405.011-.6.015H389.97l-1.794,2.491-.443.591-.19.3-14.2,19.777L370.41,92.471H358.782l5.89,35.192-13,18.008h11.59l3.146-4.461c.089-.131.169-.241.274-.38l3.673-5.214.106-.148,16.452-23.328,13.87-19.633.021-.013h-.006Z" transform="translate(0 -60.689)" fill="#fff"/>
  </g>
</svg>
